<?xml version="1.0" encoding="UTF-8" standalone="no"?>
<svg
   xmlns:dc="http://purl.org/dc/elements/1.1/"
   xmlns:cc="http://creativecommons.org/ns#"
   xmlns:rdf="http://www.w3.org/1999/02/22-rdf-syntax-ns#"
   xmlns:svg="http://www.w3.org/2000/svg"
   xmlns="http://www.w3.org/2000/svg"
   xmlns:sodipodi="http://sodipodi.sourceforge.net/DTD/sodipodi-0.dtd"
   xmlns:inkscape="http://www.inkscape.org/namespaces/inkscape"
   width="256"
   height="256"
   viewBox="0 0 256 256"
   id="svg2"
   version="1.1"
   inkscape:version="1.0.1 (3bc2e813f5, 2020-09-07)"
   sodipodi:docname="view-grid-symbolic.svg">
  <sodipodi:namedview
     id="base"
     pagecolor="#ffffff"
     bordercolor="#666666"
     borderopacity="1.0"
     inkscape:pageopacity="0.0"
     inkscape:pageshadow="2"
     inkscape:zoom="3.3632812"
     inkscape:cx="128"
     inkscape:cy="128"
     inkscape:document-units="px"
     inkscape:current-layer="layer1"
     showgrid="true"
     units="px"
     inkscape:window-width="1920"
     inkscape:window-height="1048"
     inkscape:window-x="0"
     inkscape:window-y="0"
     inkscape:window-maximized="1"
     inkscape:document-rotation="0">
    <inkscape:grid
       type="xygrid"
       id="grid4191"
       spacingx="5"
       spacingy="5" />
  </sodipodi:namedview>
  <defs
     id="defs4">
    <inkscape:path-effect
       is_visible="true"
       id="path-effect4187"
       effect="spiro" />
    <inkscape:path-effect
       is_visible="true"
       id="path-effect4202"
       effect="spiro" />
    <inkscape:path-effect
       effect="spiro"
       id="path-effect4198"
       is_visible="true" />
    <inkscape:path-effect
       effect="spiro"
       id="path-effect4176"
       is_visible="true" />
    <inkscape:path-effect
       is_visible="true"
       id="path-effect4172"
       effect="spiro" />
    <inkscape:path-effect
       is_visible="true"
       id="path-effect4829"
       effect="spiro" />
    <inkscape:path-effect
       is_visible="true"
       id="path-effect4153"
       effect="spiro" />
    <inkscape:path-effect
       is_visible="true"
       id="path-effect4175"
       effect="spiro" />
    <clipPath
       clipPathUnits="userSpaceOnUse"
       id="clipPath4174">
      <circle
         style="fill:#cc2828;fill-opacity:1;stroke:none;stroke-width:0;stroke-linecap:round;stroke-linejoin:round;stroke-miterlimit:4;stroke-dasharray:none;stroke-opacity:1"
         id="circle4176"
         cx="128"
         cy="924.36218"
         r="128" />
    </clipPath>
    <clipPath
       clipPathUnits="userSpaceOnUse"
       id="clipPath4183">
      <circle
         style="fill:#cc2828;fill-opacity:1;stroke:none;stroke-width:0;stroke-linecap:round;stroke-linejoin:round;stroke-miterlimit:4;stroke-dasharray:none;stroke-opacity:1"
         id="circle4185"
         cx="-924.36218"
         cy="128.00002"
         r="128"
         transform="matrix(0,-1,1,0,0,0)" />
    </clipPath>
    <clipPath
       clipPathUnits="userSpaceOnUse"
       id="clipPath4187">
      <circle
         style="fill:#cc2828;fill-opacity:1;stroke:none;stroke-width:0;stroke-linecap:round;stroke-linejoin:round;stroke-miterlimit:4;stroke-dasharray:none;stroke-opacity:1"
         id="circle4189"
         cx="128"
         cy="924.36218"
         r="128" />
    </clipPath>
    <clipPath
       clipPathUnits="userSpaceOnUse"
       id="clipPath4209">
      <circle
         style="fill:#cc2828;fill-opacity:1;stroke:none;stroke-width:0;stroke-linecap:round;stroke-linejoin:round;stroke-miterlimit:4;stroke-dasharray:none;stroke-opacity:1"
         id="circle4211"
         cx="-924.36218"
         cy="128"
         r="128"
         transform="matrix(0,-1,1,0,0,0)" />
    </clipPath>
    <clipPath
       clipPathUnits="userSpaceOnUse"
       id="clipPath4213">
      <circle
         style="fill:#cc2828;fill-opacity:1;stroke:none;stroke-width:0;stroke-linecap:round;stroke-linejoin:round;stroke-miterlimit:4;stroke-dasharray:none;stroke-opacity:1"
         id="circle4215"
         cx="128"
         cy="924.36218"
         r="128" />
    </clipPath>
    <clipPath
       id="clipPath4381"
       clipPathUnits="userSpaceOnUse">
      <circle
         transform="matrix(0.77780341,0.62850764,-0.62850764,0.77780341,0,0)"
         style="fill:#d83838;fill-opacity:1;stroke:none;stroke-width:0;stroke-linecap:round;stroke-linejoin:round;stroke-miterlimit:4;stroke-dasharray:none;stroke-opacity:1"
         id="circle4383"
         cx="686.50537"
         cy="640.4978"
         r="128" />
    </clipPath>
    <clipPath
       id="clipPath4857"
       clipPathUnits="userSpaceOnUse">
      <circle
         style="fill:#68bdff;fill-opacity:1;stroke:none;stroke-width:0;stroke-linecap:round;stroke-linejoin:round;stroke-miterlimit:4;stroke-dasharray:none;stroke-opacity:1"
         id="circle4859"
         cx="128"
         cy="924.36218"
         r="128" />
    </clipPath>
    <clipPath
       id="clipPath5081"
       clipPathUnits="userSpaceOnUse">
      <circle
         transform="scale(-1,1)"
         r="128"
         cy="924.36218"
         cx="-127.94974"
         id="circle5083"
         style="fill:#68bdff;fill-opacity:1;stroke:none;stroke-width:0;stroke-linecap:round;stroke-linejoin:round;stroke-miterlimit:4;stroke-dasharray:none;stroke-opacity:1" />
    </clipPath>
    <clipPath
       id="clipPath5081-7"
       clipPathUnits="userSpaceOnUse">
      <circle
         transform="scale(-1,1)"
         r="128"
         cy="924.36218"
         cx="-127.94974"
         id="circle5083-5"
         style="fill:#68bdff;fill-opacity:1;stroke:none;stroke-width:0;stroke-linecap:round;stroke-linejoin:round;stroke-miterlimit:4;stroke-dasharray:none;stroke-opacity:1" />
    </clipPath>
    <clipPath
       clipPathUnits="userSpaceOnUse"
       id="clipPath4286">
      <circle
         style="fill:#ff7b68;fill-opacity:1;stroke:none;stroke-width:0;stroke-linecap:round;stroke-linejoin:round;stroke-miterlimit:4;stroke-dasharray:none;stroke-opacity:1"
         id="circle4288"
         cx="125"
         cy="927.36218"
         r="128" />
    </clipPath>
    <clipPath
       clipPathUnits="userSpaceOnUse"
       id="clipPath4607">
      <circle
         r="128"
         cy="924.36218"
         cx="128"
         id="circle4609"
         style="fill:#1ce089;fill-opacity:1;stroke:none;stroke-width:6.37599993;stroke-linecap:round;stroke-linejoin:round;stroke-miterlimit:4;stroke-dasharray:none;stroke-opacity:1" />
    </clipPath>
    <clipPath
       clipPathUnits="userSpaceOnUse"
       id="clipPath4192">
      <circle
         r="128"
         cy="924.36218"
         cx="136"
         id="circle4194"
         style="fill:#1ce089;fill-opacity:1;stroke:none;stroke-width:6.37599993;stroke-linecap:round;stroke-linejoin:round;stroke-miterlimit:4;stroke-dasharray:none;stroke-opacity:1" />
    </clipPath>
  </defs>
  <metadata
     id="metadata7">
    <rdf:RDF>
      <cc:Work
         rdf:about="">
        <dc:format>image/svg+xml</dc:format>
        <dc:type
           rdf:resource="http://purl.org/dc/dcmitype/StillImage" />
        <dc:title />
      </cc:Work>
    </rdf:RDF>
  </metadata>
  <g
     transform="translate(0,-796.36216)"
     id="layer1"
     inkscape:groupmode="layer"
     inkscape:label="Layer 1">
    <path
       id="path864"
       style="fill:#757575;fill-opacity:1;stroke-width:169.692"
       d="M 127.67578 0 A 128 128 0 0 0 0 128 A 128 128 0 0 0 128 256 A 128 128 0 0 0 256 128 A 128 128 0 0 0 128 0 A 128 128 0 0 0 127.67578 0 z M 62.949219 45.5 A 17.5 17.5 0 0 1 63 45.5 A 17.5 17.5 0 0 1 80.5 63 A 17.5 17.5 0 0 1 63 80.5 A 17.5 17.5 0 0 1 45.5 63 A 17.5 17.5 0 0 1 62.949219 45.5 z M 127.94922 45.5 A 17.5 17.5 0 0 1 128 45.5 A 17.5 17.5 0 0 1 145.5 63 A 17.5 17.5 0 0 1 128 80.5 A 17.5 17.5 0 0 1 110.5 63 A 17.5 17.5 0 0 1 127.94922 45.5 z M 192.94922 45.5 A 17.5 17.5 0 0 1 193 45.5 A 17.5 17.5 0 0 1 210.5 63 A 17.5 17.5 0 0 1 193 80.5 A 17.5 17.5 0 0 1 175.5 63 A 17.5 17.5 0 0 1 192.94922 45.5 z M 62.949219 110.5 A 17.5 17.5 0 0 1 63 110.5 A 17.5 17.5 0 0 1 80.5 128 A 17.5 17.5 0 0 1 63 145.5 A 17.5 17.5 0 0 1 45.5 128 A 17.5 17.5 0 0 1 62.949219 110.5 z M 127.94922 110.5 A 17.5 17.5 0 0 1 128 110.5 A 17.5 17.5 0 0 1 145.5 128 A 17.5 17.5 0 0 1 128 145.5 A 17.5 17.5 0 0 1 110.5 128 A 17.5 17.5 0 0 1 127.94922 110.5 z M 192.94922 110.5 A 17.5 17.5 0 0 1 193 110.5 A 17.5 17.5 0 0 1 210.5 128 A 17.5 17.5 0 0 1 193 145.5 A 17.5 17.5 0 0 1 175.5 128 A 17.5 17.5 0 0 1 192.94922 110.5 z M 62.949219 175.5 A 17.5 17.5 0 0 1 63 175.5 A 17.5 17.5 0 0 1 80.5 193 A 17.5 17.5 0 0 1 63 210.5 A 17.5 17.5 0 0 1 45.5 193 A 17.5 17.5 0 0 1 62.949219 175.5 z M 127.94922 175.5 A 17.5 17.5 0 0 1 128 175.5 A 17.5 17.5 0 0 1 145.5 193 A 17.5 17.5 0 0 1 128 210.5 A 17.5 17.5 0 0 1 110.5 193 A 17.5 17.5 0 0 1 127.94922 175.5 z M 192.94922 175.5 A 17.5 17.5 0 0 1 193 175.5 A 17.5 17.5 0 0 1 210.5 193 A 17.5 17.5 0 0 1 193 210.5 A 17.5 17.5 0 0 1 175.5 193 A 17.5 17.5 0 0 1 192.94922 175.5 z "
       transform="translate(0,796.36216)" />
  </g>
</svg>
