<?xml version="1.0" encoding="UTF-8" standalone="no"?>
<svg
   width="256"
   height="256"
   version="1.1"
   id="svg32"
   sodipodi:docname="soundcloud.svg"
   inkscape:version="1.1.2 (0a00cf5339, 2022-02-04)"
   xmlns:inkscape="http://www.inkscape.org/namespaces/inkscape"
   xmlns:sodipodi="http://sodipodi.sourceforge.net/DTD/sodipodi-0.dtd"
   xmlns:xlink="http://www.w3.org/1999/xlink"
   xmlns="http://www.w3.org/2000/svg"
   xmlns:svg="http://www.w3.org/2000/svg">
  <sodipodi:namedview
     id="namedview34"
     pagecolor="#ffffff"
     bordercolor="#666666"
     borderopacity="1.0"
     inkscape:pageshadow="2"
     inkscape:pageopacity="0.0"
     inkscape:pagecheckerboard="0"
     showgrid="false"
     inkscape:zoom="1.2402344"
     inkscape:cx="-70.14803"
     inkscape:cy="72.163778"
     inkscape:window-width="1920"
     inkscape:window-height="1022"
     inkscape:window-x="0"
     inkscape:window-y="0"
     inkscape:window-maximized="1"
     inkscape:current-layer="svg32"
     inkscape:lockguides="true" />
  <defs
     id="defs22">
    <linearGradient
       id="d"
       x1="296"
       x2="296"
       y1="-212"
       y2="236"
       gradientUnits="userSpaceOnUse">
      <stop
         offset="0"
         stop-color="#FFFEFE"
         id="stop2" />
      <stop
         offset=".125"
         stop-color="#FFFEFE"
         stop-opacity=".098"
         id="stop4" />
      <stop
         offset=".925"
         stop-opacity=".098"
         id="stop6" />
      <stop
         offset="1"
         stop-opacity=".498"
         id="stop8" />
    </linearGradient>
    <clipPath
       id="c">
      <path
         d="M361.938-212C507.235-212 528-191.287 528-46.125v116.25C528 215.286 507.235 236 361.937 236H214.063C68.766 236 48 215.286 48 70.125v-116.25C48-191.287 68.765-212 214.063-212z"
         fill="#9F4AC8"
         id="path11" />
    </clipPath>
    <linearGradient
       id="b"
       x1="32"
       x2="272"
       y1="156"
       y2="156"
       gradientTransform="rotate(60 162.659 119.325)"
       gradientUnits="userSpaceOnUse">
      <stop
         offset="0"
         stop-color="#006FF4"
         id="stop14" />
      <stop
         offset="1"
         stop-color="#0984FE"
         id="stop16" />
    </linearGradient>
    <filter
       id="a"
       x="-0.023199999"
       y="-0.024857142"
       width="1.0464"
       height="1.0497143"
       color-interpolation-filters="sRGB">
      <feGaussianBlur
         stdDeviation="2.32"
         id="feGaussianBlur19" />
    </filter>
    <filter
       inkscape:collect="always"
       style="color-interpolation-filters:sRGB"
       id="filter4346"
       x="-0.011351265"
       width="1.0227025"
       y="-0.011357288"
       height="1.0227146">
      <feGaussianBlur
         inkscape:collect="always"
         stdDeviation="2.120027"
         id="feGaussianBlur4348" />
    </filter>
    <filter
       inkscape:collect="always"
       style="color-interpolation-filters:sRGB"
       id="filter4380"
       x="-0.045405058"
       width="1.0908101"
       y="-0.045429151"
       height="1.0908583">
      <feGaussianBlur
         inkscape:collect="always"
         stdDeviation="8.4801079"
         id="feGaussianBlur4382" />
    </filter>
    <linearGradient
       inkscape:collect="always"
       xlink:href="#linearGradient916"
       id="linearGradient1694"
       x1="39.997299"
       y1="155.99969"
       x2="263.99731"
       y2="155.99969"
       gradientUnits="userSpaceOnUse"
       gradientTransform="rotate(90,152.45454,130.07741)" />
    <linearGradient
       inkscape:collect="always"
       id="linearGradient916">
      <stop
         style="stop-color:#f69f16;stop-opacity:1"
         offset="0"
         id="stop912" />
      <stop
         style="stop-color:#ee3f35;stop-opacity:1"
         offset="1"
         id="stop914" />
    </linearGradient>
    <filter
       id="f"
       color-interpolation-filters="sRGB"
       x="-0.017249866"
       y="-0.039429276"
       width="1.0344997"
       height="1.0788586">
      <feGaussianBlur
         stdDeviation=".92"
         id="feGaussianBlur25" />
    </filter>
    <linearGradient
       id="g"
       x1="46.493"
       x2="46.493"
       y2="53.006001"
       gradientTransform="matrix(1.9877683,0,0,2.0478793,37.109103,80.579097)"
       gradientUnits="userSpaceOnUse">
      <stop
         offset="0"
         stop-color="#EEEDED"
         id="stop28" />
      <stop
         offset="1"
         stop-color="#EEEDED"
         id="stop30" />
    </linearGradient>
  </defs>
  <path
     style="color:#000000;display:inline;overflow:visible;visibility:visible;opacity:0.1;fill:#000000;fill-opacity:1;fill-rule:nonzero;stroke:none;stroke-width:2;marker:none;filter:url(#filter4346);enable-background:accumulate"
     d="M 141.84323,74 C 71.24979,74 63.65402,81.250835 64,151.98706 V 298 444.01294 C 63.65402,514.74917 71.24979,522 141.84323,522 H 434.15677 C 504.75021,522 513.9371,514.72348 512,444.01294 V 298 151.98706 C 512,81.249993 504.75021,74 434.15677,74 Z"
     id="rect4158-9"
     inkscape:connector-curvature="0"
     sodipodi:nodetypes="scccssscsss"
     transform="matrix(0.5,0,0,0.5,-17.465052,-18.379833)" />
  <path
     sodipodi:nodetypes="scccssscsss"
     inkscape:connector-curvature="0"
     id="path4350"
     d="M 141.84323,74 C 71.24979,74 63.65402,81.250835 64,151.98706 V 298 444.01294 C 63.65402,514.74917 71.24979,522 141.84323,522 H 434.15677 C 504.75021,522 513.9371,514.72348 512,444.01294 V 298 151.98706 C 512,81.249993 504.75021,74 434.15677,74 Z"
     style="color:#000000;display:inline;overflow:visible;visibility:visible;opacity:0.1;fill:#000000;fill-opacity:1;fill-rule:nonzero;stroke:none;stroke-width:2;marker:none;filter:url(#filter4380);enable-background:accumulate"
     transform="matrix(0.5,0,0,0.5,-17.465052,-18.379531)" />
  <path
     style="color:#000000;display:inline;overflow:visible;visibility:visible;opacity:0.1;fill:#000000;fill-opacity:1;fill-rule:nonzero;stroke:none;stroke-width:1.02029;marker:none;enable-background:accumulate"
     d="m 52.346548,15.620167 c -36.098811,0 -39.983003,3.69016 -39.806081,39.68984 v 74.310163 74.31016 c -0.176922,35.99969 3.70727,39.68984 39.806081,39.68984 H 200.73386 c 36.09881,0 40.77464,-3.70276 39.80608,-39.68984 V 129.62017 55.310007 c 0,-36.00011 -3.70727,-39.68984 -39.80608,-39.68984 z"
     id="rect4158-7"
     inkscape:connector-curvature="0"
     sodipodi:nodetypes="scccssscsss" />
  <path
     style="color:#000000;display:inline;overflow:visible;visibility:visible;fill:url(#linearGradient1694);fill-opacity:1;fill-rule:nonzero;stroke:none;stroke-width:1;marker:none;enable-background:accumulate"
     d="m 199.60791,17.620163 c 35.29673,0 39.09461,3.62542 38.92162,38.99353 v 73.006467 73.00648 c 0.17299,35.36812 -3.62489,38.99353 -38.92162,38.99353 H 53.451166 c -35.29671,0 -38.92161,-3.625 -38.92161,-38.99353 V 129.62016 56.613693 c 0,-35.36853 3.6249,-38.99353 38.92161,-38.99353 z"
     id="rect4158"
     inkscape:connector-curvature="0"
     sodipodi:nodetypes="scccssscsss" />
  <path
     style="color:#000000;display:inline;overflow:visible;visibility:visible;opacity:0.3;fill:#ffffff;fill-opacity:1;fill-rule:nonzero;stroke:none;stroke-width:1;marker:none;enable-background:accumulate"
     d="m 53.456828,17.620167 c -35.296728,0 -39.09487,3.62603 -38.92188,38.99414 v 2 c -0.17299,-35.36811 3.625152,-38.99414 38.92188,-38.99414 H 199.61306 c 35.29673,0 38.92188,3.62561 38.92188,38.99414 v -2 c 0,-35.36853 -3.62515,-38.99414 -38.92188,-38.99414 z"
     id="path931"
     inkscape:connector-curvature="0"
     sodipodi:nodetypes="sccsscsss" />
  <path
     style="color:#000000;display:inline;overflow:visible;visibility:visible;opacity:0.2;fill:#000000;fill-opacity:1;fill-rule:nonzero;stroke:none;stroke-width:1;marker:none;enable-background:accumulate"
     d="m 53.462228,241.62017 c -35.296731,0 -39.094875,-3.62603 -38.921885,-38.99414 v -2 c -0.17299,35.36811 3.625154,38.99414 38.921885,38.99414 H 199.61846 c 35.29673,0 38.92188,-3.62561 38.92188,-38.99414 v 2 c 0,35.36853 -3.62515,38.99414 -38.92188,38.99414 z"
     id="path931-8"
     inkscape:connector-curvature="0"
     sodipodi:nodetypes="sccsscsss" />
  <path
     id="path938"
     style="fill:#ffffff;stroke:none;stroke-width:1px;stroke-linecap:butt;stroke-linejoin:miter;stroke-opacity:1;fill-opacity:0.1788227"
     d="M 238.5293 71.523438 L 14.529297 152.74219 L 14.529297 202.62695 C 14.529297 237.99548 18.154462 241.62109 53.451172 241.62109 L 199.60742 241.62109 C 234.90415 241.62109 238.70229 237.99507 238.5293 202.62695 L 238.5293 129.62109 L 238.5293 71.523438 z " />
  <g
     id="g2269"
     transform="translate(-2.995317,7.6943627)">
    <path
       transform="matrix(1.4439873,0,0,1.4768005,-182.26467,-519.88062)"
       d="m 153.373,440.085 c -0.267,0 -0.479,0.209 -0.513,0.505 l -0.936,7.163 0.936,7.039 c 0.034,0.296 0.246,0.503 0.513,0.503 0.259,0 0.47,-0.205 0.51,-0.5 l 1.11,-7.042 -1.11,-7.164 c -0.039,-0.296 -0.252,-0.504 -0.51,-0.504 z m 5.264,-3.913 c -0.044,-0.308 -0.263,-0.52 -0.533,-0.52 -0.27,0 -0.495,0.22 -0.532,0.52 l -1.258,11.581 1.258,11.324 c 0.036,0.304 0.26,0.523 0.532,0.523 0.269,0 0.488,-0.214 0.532,-0.52 l 1.431,-11.327 z m 19.828,-10.682 c -0.516,0 -0.943,0.426 -0.968,0.967 l -1.002,21.306 1.002,13.769 c 0.027,0.538 0.452,0.962 0.968,0.962 0.514,0 0.939,-0.426 0.97,-0.965 v 0.01 l 1.132,-13.77 -1.133,-21.306 c -0.03,-0.54 -0.455,-0.967 -0.969,-0.967 z m -10.262,7.405 c -0.396,0 -0.72,0.32 -0.751,0.745 l -1.13,14.117 1.13,13.658 c 0.03,0.423 0.355,0.742 0.751,0.742 0.393,0 0.716,-0.32 0.75,-0.742 l 1.283,-13.658 -1.283,-14.12 c -0.034,-0.423 -0.357,-0.742 -0.75,-0.742 z m 20.691,29.597 c 0.64,0 1.16,-0.52 1.187,-1.185 l 0.983,-13.537 -0.982,-28.366 c -0.026,-0.666 -0.546,-1.186 -1.186,-1.186 -0.646,0 -1.168,0.521 -1.188,1.187 l -0.872,28.363 0.872,13.543 c 0.02,0.66 0.542,1.182 1.186,1.182 z m 21.351,0.063 c 0.881,0 1.608,-0.73 1.624,-1.63 v 0.01 -0.01 l 0.686,-13.148 -0.686,-32.76 c -0.015,-0.897 -0.743,-1.63 -1.624,-1.63 -0.882,0 -1.61,0.731 -1.624,1.631 l -0.613,32.748 0.613,13.168 c 0.014,0.89 0.743,1.621 1.624,1.621 z m -10.756,-0.05 c 0.767,0 1.385,-0.62 1.406,-1.411 v 0.01 l 0.834,-13.332 -0.836,-28.571 c -0.02,-0.79 -0.638,-1.409 -1.405,-1.409 -0.772,0 -1.39,0.618 -1.407,1.409 l -0.742,28.572 0.743,13.329 a 1.413,1.413 0 0 0 1.407,1.402 z m -26.174,-0.126 c 0.456,0 0.825,-0.367 0.86,-0.85 l 1.208,-13.773 -1.209,-13.1 c -0.033,-0.484 -0.402,-0.849 -0.859,-0.849 -0.462,0 -0.831,0.368 -0.86,0.855 l -1.064,13.095 1.064,13.77 c 0.03,0.485 0.398,0.852 0.86,0.852 z m -10.18,-0.754 c 0.332,0 0.602,-0.265 0.64,-0.63 l 1.358,-13.242 -1.356,-13.74 c -0.04,-0.367 -0.31,-0.632 -0.643,-0.632 -0.337,0 -0.607,0.266 -0.641,0.632 l -1.195,13.74 1.195,13.238 c 0.033,0.368 0.303,0.634 0.641,0.634 z m 41.712,-42.9 c -0.833,0 -1.5,0.667 -1.517,1.521 l -0.677,27.528 0.677,13.246 a 1.52,1.52 0 0 0 1.517,1.51 c 0.832,0 1.495,-0.665 1.514,-1.52 v 0.012 l 0.76,-13.246 -0.76,-27.531 c -0.019,-0.852 -0.682,-1.519 -1.514,-1.519 z m -21.185,43.794 c 0.576,0 1.05,-0.473 1.078,-1.076 l 1.057,-13.677 -1.057,-26.179 c -0.029,-0.605 -0.502,-1.076 -1.078,-1.076 -0.58,0 -1.054,0.473 -1.079,1.076 l -0.936,26.179 0.937,13.683 c 0.024,0.598 0.497,1.07 1.078,1.07 z m 11.805,-1.29 v -0.01 l 0.909,-13.452 -0.909,-29.32 c -0.022,-0.729 -0.592,-1.3 -1.295,-1.3 -0.708,0 -1.278,0.57 -1.297,1.3 l -0.807,29.32 0.808,13.457 c 0.02,0.721 0.59,1.291 1.296,1.291 0.705,0 1.272,-0.57 1.295,-1.295 v 0.01 z m 68.715,-30.36 c -2.157,0 -4.215,0.439 -6.09,1.23 -1.252,-14.293 -13.152,-25.506 -27.666,-25.506 -3.551,0 -7.013,0.704 -10.07,1.895 -1.189,0.463 -1.505,0.94 -1.516,1.865 v 50.338 c 0.012,0.971 0.76,1.78 1.7,1.875 0.04,0.01 43.36,0.026 43.64,0.026 8.695,0 15.745,-7.101 15.745,-15.86 0,-8.76 -7.048,-15.864 -15.742,-15.864 z m -48.564,-20.57 c -0.946,0 -1.722,0.781 -1.736,1.742 l -0.71,35.73 0.712,12.966 c 0.012,0.947 0.789,1.728 1.734,1.728 0.943,0 1.72,-0.78 1.733,-1.742 v 0.015 l 0.773,-12.969 -0.773,-35.732 c -0.013,-0.958 -0.79,-1.74 -1.733,-1.74 z"
       fill="#f43125"
       filter="url(#f)"
       id="path43" />
    <path
       d="m 39.20205,130.03715 c -0.385775,0 -0.691737,0.30864 -0.741991,0.74578 l -1.350956,10.57832 1.350956,10.39521 c 0.05025,0.43713 0.354737,0.74282 0.741991,0.74282 0.373953,0 0.676957,-0.30274 0.737558,-0.7384 l 1.602228,-10.39963 -1.602228,-10.5798 c -0.05913,-0.43713 -0.366561,-0.7443 -0.739035,-0.7443 z m 7.600239,-5.77873 c -0.06356,-0.45485 -0.378386,-0.76793 -0.768596,-0.76793 -0.391689,0 -0.715386,0.32489 -0.768597,0.76793 l -1.818027,17.10283 1.818027,16.72329 c 0.05173,0.44895 0.37543,0.77237 0.768597,0.77237 0.387255,0 0.703561,-0.31604 0.768596,-0.76793 l 2.066343,-16.72773 z m 28.631704,-15.77517 c -0.744947,0 -1.361303,0.62911 -1.396776,1.42806 l -1.448509,31.46471 1.448509,20.33407 c 0.03695,0.79451 0.650351,1.42068 1.396776,1.42068 0.741992,0 1.355391,-0.62912 1.399733,-1.42511 v 0.0148 l 1.634747,-20.33555 -1.634747,-31.4647 c -0.04434,-0.79747 -0.657741,-1.42807 -1.399733,-1.42807 z m -14.817657,10.9357 c -0.573491,0 -1.040561,0.47257 -1.086382,1.10021 l -1.628833,20.848 1.628833,20.17014 c 0.04434,0.62469 0.512891,1.09579 1.086382,1.09579 0.566101,0 1.033172,-0.47258 1.083426,-1.09579 l 1.852023,-20.17014 -1.852023,-20.85243 c -0.05025,-0.62468 -0.517325,-1.09578 -1.083426,-1.09578 z m 29.87624,43.70886 c 0.925272,0 1.676131,-0.76793 1.714562,-1.75 l 1.418947,-19.99145 -1.418947,-41.890931 c -0.03695,-0.98355 -0.787812,-1.75148 -1.711606,-1.75148 -0.932663,0 -1.685001,0.76941 -1.714562,1.75296 l -1.259316,41.886501 1.257838,20.0003 c 0.02956,0.97469 0.783377,1.74558 1.714562,1.74558 z m 30.831064,0.0931 c 1.27115,0 2.32057,-1.07807 2.3457,-2.40719 v 0.0148 -0.0148 l 0.99031,-19.41698 -0.99031,-48.379981 c -0.0222,-1.32469 -1.07455,-2.40718 -2.3457,-2.40718 -1.27409,0 -2.32648,1.07954 -2.34569,2.40866 l -0.88537,48.362271 0.88537,19.4465 c 0.0192,1.31435 1.07308,2.3939 2.34569,2.3939 z m -15.53156,-0.0738 c 1.10708,0 1.99983,-0.91562 2.02939,-2.08377 v 0.0148 L 109.02611,141.38943 107.82,99.195759 c -0.0296,-1.16667 -0.92232,-2.08081 -2.0294,-2.08081 -1.11594,0 -2.00869,0.91266 -2.03234,2.08081 l -1.0716,42.195151 1.07308,19.68427 c 0.0251,1.15486 0.9164,2.07047 2.03234,2.07047 z m -37.794259,-0.18616 c 0.657741,0 1.189846,-0.54199 1.240101,-1.25528 l 1.744123,-20.33998 -1.744123,-19.34609 c -0.04729,-0.71477 -0.580882,-1.2538 -1.241579,-1.2538 -0.66661,0 -1.198716,0.54346 -1.24158,1.26267 l -1.537193,19.3387 1.537193,20.33554 c 0.04434,0.71625 0.57497,1.25824 1.24158,1.25824 z m -14.70089,-1.11351 c 0.480373,0 0.870584,-0.39135 0.925272,-0.93039 l 1.959922,-19.55579 -1.956966,-20.29123 c -0.05913,-0.54199 -0.447855,-0.93335 -0.928228,-0.93335 -0.487763,0 -0.876495,0.39284 -0.92675,0.93335 l -1.724909,20.29123 1.724909,19.54989 c 0.0473,0.54346 0.437509,0.93629 0.92675,0.93629 z M 113.5283,98.492699 c -1.20167,0 -2.16684,0.98503 -2.1905,2.246211 l -0.977,40.65337 0.977,19.56169 c 0.0236,1.24495 0.98587,2.22997 2.1905,2.22997 1.20167,0 2.15798,-0.98207 2.18755,-2.24473 v 0.0177 l 1.09672,-19.5617 -1.09672,-40.65779 c -0.0296,-1.258241 -0.98588,-2.243261 -2.18755,-2.243261 z M 82.938158,163.1677 c 0.830675,0 1.5165,-0.69853 1.556408,-1.58904 l 1.526846,-20.1982 -1.526846,-38.66116 c -0.04138,-0.89346 -0.724255,-1.58904 -1.556408,-1.58904 -0.838067,0 -1.522413,0.69853 -1.557887,1.58904 l -1.352434,38.66116 1.353912,20.20707 c 0.034,0.88312 0.718342,1.58017 1.556409,1.58017 z m 17.046586,-1.90507 v -0.0148 L 101.29579,141.3819 99.984744,98.082109 c -0.03252,-1.07659 -0.855803,-1.91984 -1.871237,-1.91984 -1.021346,0 -1.844632,0.84177 -1.872714,1.91984 l -1.16472,43.299791 1.167675,19.87331 c 0.02809,1.06477 0.849891,1.90655 1.869759,1.90655 1.018391,0 1.837242,-0.84178 1.871237,-1.91246 v 0.0148 z m 99.222866,-44.83567 c -3.11576,0 -6.08669,0.64831 -8.79452,1.81646 -1.80915,-21.107911 -18.99172,-37.667277 -39.94929,-37.667277 -5.1289,0 -10.12773,1.039667 -14.54125,2.798536 -1.71604,0.683759 -2.17277,1.388193 -2.18902,2.754234 V 160.4681 c 0.0177,1.43397 1.09672,2.6287 2.45359,2.769 0.0591,0.0148 62.61107,0.0384 63.01753,0.0384 12.55474,0 22.73274,-10.48676 22.73274,-23.42205 0,-12.93677 -10.17652,-23.42797 -22.72978,-23.42797 z M 129.08204,86.049165 c -1.36574,0 -2.4876,1.153381 -2.50681,2.572587 l -1.02578,52.766088 1.02726,19.14819 c 0.0177,1.39853 1.13812,2.55192 2.50533,2.55192 1.3613,0 2.48315,-1.15191 2.50237,-2.57259 v 0.0221 l 1.11447,-19.15263 -1.11447,-52.769035 c -0.0207,-1.414776 -1.14107,-2.569634 -2.50237,-2.569634 z"
       fill="url(#g)"
       id="path45"
       style="fill:url(#g);stroke-width:1.47744" />
  </g>
</svg>
